<svg width="143" height="55" viewBox="0 0 143 55" fill="none" xmlns="http://www.w3.org/2000/svg">
<path d="M6.86627 18.5625V24.7084H3.02246V11.9584H4.82204L31.3545 25.7665L32.0853 26.1468V25.3229V9.66669H43.4689L55.3043 23.1055V38.4584H49.7496H49.2496V38.9584C49.2496 40.7278 48.6018 42.2206 47.2867 43.465C45.9706 44.7103 44.3796 45.3334 42.4839 45.3334C40.5881 45.3334 38.9971 44.7103 37.681 43.465C36.3659 42.2206 35.7181 40.7278 35.7181 38.9584V38.4584H35.2181H21.8977H21.3977V38.9584C21.3977 40.7278 20.7499 42.2206 19.4349 43.465C18.1187 44.7103 16.5277 45.3334 14.632 45.3334C12.7362 45.3334 11.1452 44.7103 9.82908 43.465C8.51403 42.2206 7.86627 40.7278 7.86627 38.9584V38.4584H7.36627H3.02246V30.2917H22.3821H23.8856L22.6815 29.3913L7.66571 18.1621L6.86627 17.5643V18.5625ZM35.9291 22.9167V23.4167H36.4291H49.5074H50.6176L49.8818 22.5853L41.7684 13.4186L41.6192 13.25H41.394H36.4291H35.9291V13.75V22.9167ZM17.5792 41.7851L17.2355 41.4219L17.5792 41.7851C18.3708 41.036 18.7648 40.0809 18.7648 38.9584C18.7648 37.8358 18.3708 36.8807 17.5792 36.1316C16.7895 35.3844 15.7939 35.0209 14.632 35.0209C13.4701 35.0209 12.4744 35.3844 11.6848 36.1316C10.8932 36.8807 10.4991 37.8358 10.4991 38.9584C10.4991 40.0809 10.8932 41.036 11.6848 41.7851C12.4744 42.5323 13.4701 42.8959 14.632 42.8959C15.7939 42.8959 16.7895 42.5323 17.5792 41.7851ZM42.4839 42.8959C43.6458 42.8959 44.6414 42.5323 45.4311 41.7851C46.2227 41.036 46.6167 40.0809 46.6167 38.9584C46.6167 37.8358 46.2227 36.8807 45.4311 36.1316C44.6414 35.3844 43.6458 35.0209 42.4839 35.0209C41.3219 35.0209 40.3263 35.3844 39.5367 36.1316C38.7451 36.8807 38.351 37.8358 38.351 38.9584C38.351 40.0809 38.7451 41.036 39.5367 41.7851C40.3263 42.5323 41.3219 42.8959 42.4839 42.8959Z" fill="#003C3C" stroke="#008888"/>
<path d="M73.3903 24.96C73.3503 24.8933 73.2103 24.7933 72.9703 24.66C72.7303 24.5133 72.4303 24.36 72.0703 24.2C71.7103 24.04 71.3169 23.9 70.8903 23.78C70.4636 23.66 70.0369 23.6 69.6103 23.6C69.0503 23.6 68.6169 23.7 68.3103 23.9C68.0036 24.0867 67.8503 24.38 67.8503 24.78C67.8503 25.1 67.9636 25.3533 68.1903 25.54C68.4303 25.7267 68.7703 25.8933 69.2103 26.04C69.6503 26.1733 70.1903 26.3333 70.8303 26.52C71.7369 26.76 72.5236 27.0533 73.1903 27.4C73.8569 27.7333 74.3636 28.1667 74.7103 28.7C75.0703 29.2333 75.2503 29.94 75.2503 30.82C75.2503 31.62 75.1036 32.3 74.8103 32.86C74.5169 33.4067 74.1169 33.8533 73.6103 34.2C73.1169 34.5333 72.5503 34.78 71.9103 34.94C71.2703 35.0867 70.6103 35.16 69.9303 35.16C69.2369 35.16 68.5236 35.0933 67.7903 34.96C67.0703 34.8133 66.3769 34.6133 65.7103 34.36C65.0436 34.0933 64.4303 33.7733 63.8703 33.4L65.3103 30.54C65.3636 30.6067 65.5369 30.7333 65.8303 30.92C66.1236 31.0933 66.4836 31.28 66.9103 31.48C67.3503 31.6667 67.8369 31.8333 68.3703 31.98C68.9036 32.1267 69.4436 32.2 69.9903 32.2C70.5769 32.2 71.0103 32.1067 71.2903 31.92C71.5836 31.7333 71.7303 31.4733 71.7303 31.14C71.7303 30.78 71.5769 30.5 71.2703 30.3C70.9769 30.1 70.5703 29.92 70.0503 29.76C69.5436 29.6 68.9569 29.42 68.2903 29.22C67.4236 28.9533 66.7036 28.6533 66.1303 28.32C65.5703 27.9867 65.1503 27.58 64.8703 27.1C64.6036 26.62 64.4703 26.02 64.4703 25.3C64.4703 24.3 64.7036 23.46 65.1703 22.78C65.6503 22.0867 66.2903 21.5667 67.0903 21.22C67.8903 20.86 68.7636 20.68 69.7103 20.68C70.3769 20.68 71.0169 20.76 71.6303 20.92C72.2569 21.08 72.8369 21.28 73.3703 21.52C73.9169 21.76 74.4036 22 74.8303 22.24L73.3903 24.96ZM77.1582 33.08L82.4982 26.72H77.4382V24.5H85.8582V26.42L80.5782 32.78H85.9982V35H77.1582V33.08ZM95.321 27.24C94.5477 27.24 93.8477 27.3667 93.221 27.62C92.5944 27.86 92.141 28.22 91.861 28.7V35H88.661V24.5H91.601V26.62C91.961 25.9133 92.4277 25.36 93.001 24.96C93.5744 24.56 94.1744 24.3533 94.801 24.34C94.9477 24.34 95.0544 24.34 95.121 24.34C95.201 24.34 95.2677 24.3467 95.321 24.36V27.24ZM102.591 35.2C101.697 35.2 100.897 35.0533 100.191 34.76C99.4974 34.4667 98.9107 34.0667 98.4307 33.56C97.9507 33.0533 97.5841 32.4733 97.3307 31.82C97.0907 31.1667 96.9707 30.48 96.9707 29.76C96.9707 29.0267 97.0907 28.3333 97.3307 27.68C97.5841 27.0267 97.9507 26.4467 98.4307 25.94C98.9107 25.4333 99.4974 25.0333 100.191 24.74C100.897 24.4467 101.697 24.3 102.591 24.3C103.484 24.3 104.277 24.4467 104.971 24.74C105.664 25.0333 106.251 25.4333 106.731 25.94C107.211 26.4467 107.577 27.0267 107.831 27.68C108.084 28.3333 108.211 29.0267 108.211 29.76C108.211 30.48 108.084 31.1667 107.831 31.82C107.577 32.4733 107.211 33.0533 106.731 33.56C106.251 34.0667 105.664 34.4667 104.971 34.76C104.277 35.0533 103.484 35.2 102.591 35.2ZM100.251 29.76C100.251 30.3067 100.351 30.7867 100.551 31.2C100.764 31.6133 101.044 31.9333 101.391 32.16C101.737 32.3867 102.137 32.5 102.591 32.5C103.031 32.5 103.424 32.3867 103.771 32.16C104.131 31.92 104.411 31.5933 104.611 31.18C104.811 30.7667 104.911 30.2933 104.911 29.76C104.911 29.2133 104.811 28.7333 104.611 28.32C104.411 27.9067 104.131 27.5867 103.771 27.36C103.424 27.1333 103.031 27.02 102.591 27.02C102.137 27.02 101.737 27.1333 101.391 27.36C101.044 27.5867 100.764 27.9067 100.551 28.32C100.351 28.7333 100.251 29.2133 100.251 29.76ZM117.442 34.44C117.148 34.56 116.822 34.68 116.462 34.8C116.115 34.92 115.748 35.0133 115.362 35.08C114.975 35.16 114.595 35.2 114.222 35.2C113.688 35.2 113.195 35.1133 112.742 34.94C112.302 34.7533 111.948 34.4533 111.682 34.04C111.428 33.6267 111.302 33.08 111.302 32.4V26.92H109.962V24.5H111.302V21.16H114.502V24.5H116.642V26.92H114.502V31.3C114.502 31.6467 114.588 31.9 114.762 32.06C114.935 32.2067 115.155 32.28 115.422 32.28C115.648 32.28 115.888 32.24 116.142 32.16C116.408 32.08 116.635 31.9933 116.822 31.9L117.442 34.44ZM124.591 35.2C123.698 35.2 122.905 35.06 122.211 34.78C121.518 34.4867 120.925 34.0933 120.431 33.6C119.951 33.1067 119.585 32.54 119.331 31.9C119.078 31.2467 118.951 30.5667 118.951 29.86C118.951 28.8467 119.171 27.9267 119.611 27.1C120.065 26.26 120.711 25.5867 121.551 25.08C122.391 24.56 123.405 24.3 124.591 24.3C125.778 24.3 126.785 24.5533 127.611 25.06C128.451 25.5667 129.091 26.2333 129.531 27.06C129.971 27.8733 130.191 28.76 130.191 29.72C130.191 29.9067 130.178 30.0933 130.151 30.28C130.138 30.4533 130.125 30.6067 130.111 30.74H122.351C122.391 31.2067 122.518 31.6 122.731 31.92C122.958 32.24 123.245 32.4867 123.591 32.66C123.938 32.82 124.305 32.9 124.691 32.9C125.171 32.9 125.618 32.7867 126.031 32.56C126.458 32.3333 126.751 32.0267 126.911 31.64L129.631 32.4C129.365 32.9467 128.985 33.4333 128.491 33.86C128.011 34.2733 127.438 34.6 126.771 34.84C126.118 35.08 125.391 35.2 124.591 35.2ZM122.271 28.78H126.831C126.778 28.34 126.651 27.96 126.451 27.64C126.251 27.3067 125.985 27.0533 125.651 26.88C125.318 26.6933 124.951 26.6 124.551 26.6C124.138 26.6 123.765 26.6933 123.431 26.88C123.111 27.0533 122.851 27.3067 122.651 27.64C122.451 27.96 122.325 28.34 122.271 28.78ZM134.491 24.5L136.351 27.46L136.551 27.84L136.751 27.46L138.611 24.5H141.911L138.391 29.72L141.991 35H138.691L136.731 32.06L136.551 31.68L136.371 32.06L134.411 35H131.111L134.711 29.78L131.191 24.5H134.491Z" fill="white"/>
</svg>
