<svg width="137" height="37" viewBox="0 0 137 37" fill="none" xmlns="http://www.w3.org/2000/svg">
<path d="M4.37508 9.39583V15.5417H0.791748V2.79167H2.45499L27.5508 16.5944L28.2917 17.0019V16.1562V0.5H39.0159L50.2084 13.931V29.2917H44.9792H44.4792V29.7917C44.4792 31.5703 43.8625 33.0659 42.6205 34.3079C41.3785 35.5499 39.8829 36.1667 38.1042 36.1667C36.3256 36.1667 34.83 35.5499 33.588 34.3079C32.346 33.0659 31.7292 31.5703 31.7292 29.7917V29.2917H31.2292H18.6251H18.1251V29.7917C18.1251 31.5703 17.5083 33.0659 16.2663 34.3079C15.0243 35.5499 13.5287 36.1667 11.7501 36.1667C9.97145 36.1667 8.47582 35.5499 7.23384 34.3079C5.99187 33.0659 5.37508 31.5703 5.37508 29.7917V29.2917H4.87508H0.791748V21.125H19.0834H20.5224L19.3934 20.2327L5.18511 9.00355L4.37508 8.36337V9.39583ZM31.8751 13.75V14.25H32.3751H44.7501H45.821L45.1334 13.429L37.4563 4.2623L37.3064 4.08333H37.073H32.3751H31.8751V4.58333V13.75ZM11.7501 33.7292C12.8638 33.7292 13.816 33.3599 14.5672 32.6088C15.3184 31.8576 15.6876 30.9054 15.6876 29.7917C15.6876 28.6779 15.3184 27.7258 14.5672 26.9746C13.816 26.2234 12.8638 25.8542 11.7501 25.8542C10.6363 25.8542 9.68417 26.2234 8.93299 26.9746C8.1818 27.7258 7.81258 28.6779 7.81258 29.7917C7.81258 30.9054 8.1818 31.8576 8.93299 32.6088C9.68417 33.3599 10.6363 33.7292 11.7501 33.7292ZM38.1042 33.7292C39.218 33.7292 40.1702 33.3599 40.9213 32.6088C41.6725 31.8576 42.0417 30.9054 42.0417 29.7917C42.0417 28.6779 41.6725 27.7258 40.9213 26.9746C40.1702 26.2234 39.218 25.8542 38.1042 25.8542C36.9905 25.8542 36.0383 26.2234 35.2872 26.9746C34.536 27.7258 34.1667 28.6779 34.1667 29.7917C34.1667 30.9054 34.536 31.8576 35.2872 32.6088C36.0383 33.3599 36.9905 33.7292 38.1042 33.7292Z" fill="#003C3C" stroke="#008888"/>
<path d="M67.88 15.794C67.84 15.7273 67.7 15.6273 67.46 15.494C67.22 15.3473 66.92 15.194 66.56 15.034C66.2 14.874 65.8067 14.734 65.38 14.614C64.9533 14.494 64.5267 14.434 64.1 14.434C63.54 14.434 63.1067 14.534 62.8 14.734C62.4933 14.9207 62.34 15.214 62.34 15.614C62.34 15.934 62.4533 16.1873 62.68 16.374C62.92 16.5607 63.26 16.7273 63.7 16.874C64.14 17.0073 64.68 17.1673 65.32 17.354C66.2267 17.594 67.0133 17.8873 67.68 18.234C68.3467 18.5673 68.8533 19.0007 69.2 19.534C69.56 20.0673 69.74 20.774 69.74 21.654C69.74 22.454 69.5933 23.134 69.3 23.694C69.0067 24.2407 68.6067 24.6873 68.1 25.034C67.6067 25.3673 67.04 25.614 66.4 25.774C65.76 25.9207 65.1 25.994 64.42 25.994C63.7267 25.994 63.0133 25.9273 62.28 25.794C61.56 25.6473 60.8667 25.4473 60.2 25.194C59.5333 24.9273 58.92 24.6073 58.36 24.234L59.8 21.374C59.8533 21.4407 60.0267 21.5673 60.32 21.754C60.6133 21.9273 60.9733 22.114 61.4 22.314C61.84 22.5007 62.3267 22.6673 62.86 22.814C63.3933 22.9607 63.9333 23.034 64.48 23.034C65.0667 23.034 65.5 22.9407 65.78 22.754C66.0733 22.5673 66.22 22.3073 66.22 21.974C66.22 21.614 66.0667 21.334 65.76 21.134C65.4667 20.934 65.06 20.754 64.54 20.594C64.0333 20.434 63.4467 20.254 62.78 20.054C61.9133 19.7873 61.1933 19.4873 60.62 19.154C60.06 18.8207 59.64 18.414 59.36 17.934C59.0933 17.454 58.96 16.854 58.96 16.134C58.96 15.134 59.1933 14.294 59.66 13.614C60.14 12.9207 60.78 12.4007 61.58 12.054C62.38 11.694 63.2533 11.514 64.2 11.514C64.8667 11.514 65.5067 11.594 66.12 11.754C66.7467 11.914 67.3267 12.114 67.86 12.354C68.4067 12.594 68.8933 12.834 69.32 13.074L67.88 15.794ZM71.648 23.914L76.988 17.554H71.928V15.334H80.348V17.254L75.068 23.614H80.488V25.834H71.648V23.914ZM89.8108 18.074C89.0374 18.074 88.3374 18.2007 87.7108 18.454C87.0841 18.694 86.6308 19.054 86.3508 19.534V25.834H83.1508V15.334H86.0908V17.454C86.4508 16.7473 86.9174 16.194 87.4908 15.794C88.0641 15.394 88.6641 15.1873 89.2908 15.174C89.4374 15.174 89.5441 15.174 89.6108 15.174C89.6908 15.174 89.7574 15.1807 89.8108 15.194V18.074ZM97.0805 26.034C96.1871 26.034 95.3871 25.8873 94.6805 25.594C93.9871 25.3007 93.4005 24.9007 92.9205 24.394C92.4405 23.8873 92.0738 23.3073 91.8205 22.654C91.5805 22.0007 91.4605 21.314 91.4605 20.594C91.4605 19.8607 91.5805 19.1673 91.8205 18.514C92.0738 17.8607 92.4405 17.2807 92.9205 16.774C93.4005 16.2673 93.9871 15.8673 94.6805 15.574C95.3871 15.2807 96.1871 15.134 97.0805 15.134C97.9738 15.134 98.7671 15.2807 99.4605 15.574C100.154 15.8673 100.74 16.2673 101.22 16.774C101.7 17.2807 102.067 17.8607 102.32 18.514C102.574 19.1673 102.7 19.8607 102.7 20.594C102.7 21.314 102.574 22.0007 102.32 22.654C102.067 23.3073 101.7 23.8873 101.22 24.394C100.74 24.9007 100.154 25.3007 99.4605 25.594C98.7671 25.8873 97.9738 26.034 97.0805 26.034ZM94.7405 20.594C94.7405 21.1407 94.8405 21.6207 95.0405 22.034C95.2538 22.4473 95.5338 22.7673 95.8805 22.994C96.2271 23.2207 96.6271 23.334 97.0805 23.334C97.5205 23.334 97.9138 23.2207 98.2605 22.994C98.6205 22.754 98.9005 22.4273 99.1005 22.014C99.3005 21.6007 99.4005 21.1273 99.4005 20.594C99.4005 20.0473 99.3005 19.5673 99.1005 19.154C98.9005 18.7407 98.6205 18.4207 98.2605 18.194C97.9138 17.9673 97.5205 17.854 97.0805 17.854C96.6271 17.854 96.2271 17.9673 95.8805 18.194C95.5338 18.4207 95.2538 18.7407 95.0405 19.154C94.8405 19.5673 94.7405 20.0473 94.7405 20.594ZM111.931 25.274C111.638 25.394 111.311 25.514 110.951 25.634C110.605 25.754 110.238 25.8473 109.851 25.914C109.465 25.994 109.085 26.034 108.711 26.034C108.178 26.034 107.685 25.9473 107.231 25.774C106.791 25.5873 106.438 25.2873 106.171 24.874C105.918 24.4607 105.791 23.914 105.791 23.234V17.754H104.451V15.334H105.791V11.994H108.991V15.334H111.131V17.754H108.991V22.134C108.991 22.4807 109.078 22.734 109.251 22.894C109.425 23.0407 109.645 23.114 109.911 23.114C110.138 23.114 110.378 23.074 110.631 22.994C110.898 22.914 111.125 22.8273 111.311 22.734L111.931 25.274ZM119.081 26.034C118.188 26.034 117.394 25.894 116.701 25.614C116.008 25.3207 115.414 24.9273 114.921 24.434C114.441 23.9407 114.074 23.374 113.821 22.734C113.568 22.0807 113.441 21.4007 113.441 20.694C113.441 19.6807 113.661 18.7607 114.101 17.934C114.554 17.094 115.201 16.4207 116.041 15.914C116.881 15.394 117.894 15.134 119.081 15.134C120.268 15.134 121.274 15.3873 122.101 15.894C122.941 16.4007 123.581 17.0673 124.021 17.894C124.461 18.7073 124.681 19.594 124.681 20.554C124.681 20.7407 124.668 20.9273 124.641 21.114C124.628 21.2873 124.614 21.4407 124.601 21.574H116.841C116.881 22.0407 117.008 22.434 117.221 22.754C117.448 23.074 117.734 23.3207 118.081 23.494C118.428 23.654 118.794 23.734 119.181 23.734C119.661 23.734 120.108 23.6207 120.521 23.394C120.948 23.1673 121.241 22.8607 121.401 22.474L124.121 23.234C123.854 23.7807 123.474 24.2673 122.981 24.694C122.501 25.1073 121.928 25.434 121.261 25.674C120.608 25.914 119.881 26.034 119.081 26.034ZM116.761 19.614H121.321C121.268 19.174 121.141 18.794 120.941 18.474C120.741 18.1407 120.474 17.8873 120.141 17.714C119.808 17.5273 119.441 17.434 119.041 17.434C118.628 17.434 118.254 17.5273 117.921 17.714C117.601 17.8873 117.341 18.1407 117.141 18.474C116.941 18.794 116.814 19.174 116.761 19.614ZM128.981 15.334L130.841 18.294L131.041 18.674L131.241 18.294L133.101 15.334H136.401L132.881 20.554L136.481 25.834H133.181L131.221 22.894L131.041 22.514L130.861 22.894L128.901 25.834H125.601L129.201 20.614L125.681 15.334H128.981Z" fill="#282C31"/>
</svg>
